<svg width="199" height="50" viewBox="0 0 199 50" fill="none" xmlns="http://www.w3.org/2000/svg">
<g clip-path="url(#clip0_8107_249)">
<path d="M41.078 0H8.90023C3.98477 0 0 3.98651 0 8.90411V41.0959C0 46.0135 3.98477 50 8.90023 50H41.078C45.9934 50 49.9782 46.0135 49.9782 41.0959V8.90411C49.9782 3.98651 45.9934 0 41.078 0Z" fill="#FF641F"/>
<path d="M43.5887 32.4201C42.6759 28.0822 38.5681 25.1142 34.2321 25.1142H32.8628V23.9726C37.6552 23.9726 41.5348 20.0913 41.5348 15.0685C41.5348 10.0457 37.6552 6.16438 32.6346 6.16438H7.53138C7.53138 6.16438 6.16211 6.84931 6.16211 7.53425V14.6119C6.16211 14.6119 8.44422 13.9269 9.81349 13.9269C9.81349 13.9269 10.0417 13.9269 10.2699 13.9269H10.4981C10.4981 13.9269 10.9545 13.9269 11.1828 13.9269H32.8628V21.4612H10.0417C7.9878 21.4612 6.16211 23.2877 6.16211 25.3425C6.16211 27.3973 7.9878 29.2237 10.0417 29.2237H32.8628V36.3014H31.95H10.0417C8.67243 36.3014 7.53138 36.0731 6.39032 35.6164V42.6941C6.39032 42.6941 7.07495 44.0639 7.75959 44.0639H34.6885C40.622 44.0639 45.1862 38.8128 43.8169 32.6484L43.5887 32.4201Z" fill="white"/>
<path d="M118.213 25.1142H124.603L112.052 2.96804C110.91 1.14155 109.085 0 107.259 0C105.205 0 103.379 1.14155 102.467 2.73973L89.915 24.8858H96.3049L106.574 5.70776H108.172L118.441 24.8858L118.213 25.1142Z" fill="white"/>
<path d="M175.266 25.1142H181.656L169.104 2.96804C167.963 1.14155 166.137 0 164.312 0C162.258 0 160.432 1.14155 159.519 2.73973L146.968 24.8858H153.358L163.627 5.70776H165.225L175.494 24.8858L175.266 25.1142Z" fill="white"/>
<path d="M86.9479 17.5799C86.2633 14.6119 83.753 12.7854 80.7862 12.7854H79.8734V12.1005C83.0683 12.1005 85.5787 9.36073 85.5787 6.16438C85.5787 2.96804 83.0683 0.22831 79.8734 0.22831H62.9858C62.9858 0.22831 62.0729 0.684931 62.0729 1.14155V5.70776C62.0729 5.70776 63.4422 5.25114 64.355 5.25114C64.355 5.25114 64.355 5.25114 64.5833 5.25114C64.5833 5.25114 64.8115 5.25114 65.0397 5.25114H79.417V10.274H64.355C62.9858 10.274 61.8447 11.4155 61.8447 12.7854C61.8447 14.1552 62.9858 15.2968 64.355 15.2968H79.417V20.0913H78.9606H64.355C63.4422 20.0913 62.5294 20.0913 61.8447 19.6347V24.4292C61.8447 24.4292 62.3011 25.3425 62.7576 25.3425H80.558C84.4376 25.3425 87.4044 21.9178 86.7197 17.8082L86.9479 17.5799Z" fill="white"/>
<path d="M193.522 1.59818V17.5799C193.522 17.5799 193.522 19.1781 193.522 19.4064C193.522 19.863 193.294 20.0913 192.838 20.3196C192.838 20.3196 192.381 20.5479 191.925 20.7763C191.469 20.7763 191.012 20.7763 190.784 20.7763C190.556 20.7763 190.099 20.7763 189.871 20.7763C189.415 20.7763 189.186 20.5479 188.958 20.3196C188.73 20.3196 188.502 19.863 188.274 19.4064C188.274 18.9498 188.045 18.2648 188.045 17.5799V16.4384H182.568V17.5799C182.568 19.6347 183.025 21.2329 184.166 22.6027C185.307 23.7443 186.676 24.6575 188.274 24.8858C189.186 24.8858 189.871 25.1142 190.784 25.1142C191.697 25.1142 192.61 25.1142 193.522 24.8858C194.435 24.8858 195.12 24.4292 195.576 23.9726C196.261 23.516 196.946 23.0594 197.402 22.6027C197.858 22.1461 198.315 21.4612 198.543 20.5479C198.771 19.6347 199 18.7215 199 17.5799V1.59818H193.522Z" fill="white"/>
<path d="M199 0H187.361C187.361 0 186.448 0.456621 186.448 0.913242V5.47945C186.448 5.47945 187.818 5.02283 188.73 5.02283C188.73 5.02283 188.73 5.02283 188.959 5.02283C188.959 5.02283 189.187 5.02283 189.415 5.02283H198.543V0L199 0Z" fill="white"/>
<path d="M156.325 31.2785C155.64 32.8767 154.955 34.2466 154.042 35.8447V49.7717H151.532V39.4977C151.532 39.4977 150.619 40.411 150.163 40.8676C150.163 40.8676 150.163 40.6393 149.935 40.411C149.706 40.1826 149.706 39.9543 149.478 39.726C149.478 39.4977 149.25 39.2694 149.022 39.0411C149.022 39.0411 148.794 38.5845 148.565 38.5845C149.022 38.1279 149.478 37.6712 150.163 36.9863C150.619 36.3014 151.076 35.8447 151.532 35.1598C151.989 34.4749 152.445 33.79 152.673 33.105C153.13 32.4201 153.358 31.7352 153.586 31.0502L156.096 31.7352L156.325 31.2785ZM162.258 37.4429C162.258 38.8128 162.03 39.9543 161.802 41.0959C161.573 42.2374 161.117 43.379 160.661 44.2922C160.204 45.4338 159.52 46.347 158.835 47.2603C158.15 48.1735 157.237 48.8584 156.096 49.5434C156.096 49.3151 155.64 48.8584 155.184 48.4018C154.727 47.9452 154.499 47.7169 154.042 47.4886C154.955 46.8036 155.868 46.347 156.553 45.4338C157.237 44.7489 157.694 43.8356 158.15 42.9224C158.607 42.0091 158.835 41.0959 159.063 40.1826C159.063 39.2694 159.52 38.1279 159.52 36.9863H154.955V34.7032H159.52C159.52 34.7032 159.52 33.3333 159.52 32.6484V30.3653H162.258C162.258 31.9635 162.258 33.3333 162.258 34.7032H167.051C167.051 34.7032 166.822 34.2466 166.594 34.0183C166.366 33.79 166.138 33.5616 165.909 33.3333C165.681 33.105 165.453 32.8767 165.225 32.6484C164.997 32.4201 164.768 32.1918 164.312 31.9635L166.138 30.8219C166.138 30.8219 166.594 31.2785 167.051 31.5068C167.507 31.7352 167.507 31.9635 167.963 32.1918C168.42 32.4201 168.42 32.6484 168.648 32.8767C168.876 33.105 169.104 33.3333 169.333 33.5616L167.507 34.9315L170.474 37.2146H162.486L162.258 37.4429Z" fill="white"/>
<path d="M170.246 35.6164V37.6712C170.246 37.6712 169.561 37.6712 169.105 37.6712H155.412V35.3881H170.246C170.246 35.3881 170.702 35.3881 170.702 35.8447L170.246 35.6164Z" fill="white"/>
<path d="M164.996 38.5845V46.347C164.996 46.347 164.996 47.032 164.996 47.2603C164.996 47.2603 164.996 47.4886 165.225 47.7169C165.225 47.7169 165.453 47.7169 165.681 47.7169C165.681 47.7169 166.137 47.7169 166.366 47.7169C166.366 47.7169 166.594 47.7169 166.822 47.7169H167.279C167.279 47.7169 167.279 47.7169 167.507 47.2603C167.507 47.2603 167.507 46.8036 167.507 46.347V45.8904H170.245V46.347C170.245 46.347 170.017 48.1735 169.332 48.6301C168.876 49.0868 168.191 49.5434 167.279 49.7717C166.822 49.7717 166.366 49.7717 165.909 49.7717C165.453 49.7717 164.996 49.7717 164.54 49.7717C164.084 49.7717 163.855 49.5434 163.399 49.3151C162.943 49.3151 162.714 48.8584 162.486 48.6301C162.258 48.4018 162.03 48.1735 161.801 47.7169C161.801 47.2603 161.573 46.8036 161.573 46.347V38.5845H164.312H164.996Z" fill="#FF641F"/>
<path d="M135.786 35.3881H129.168V37.4429H135.558C136.014 37.4429 136.243 37.4429 136.699 37.4429V34.4749C136.699 34.4749 136.243 35.6165 135.558 35.6165L135.786 35.3881Z" fill="white"/>
<path d="M136.927 31.5069C136.927 31.5069 136.243 31.2785 135.786 31.2785H129.168V33.3333H133.276H136.014C136.699 33.3333 137.155 33.79 137.155 34.4749V31.7352L136.927 31.5069Z" fill="white"/>
<path d="M140.806 38.8128V41.0959C140.806 41.0959 140.122 41.0959 139.665 41.0959H124.604V38.5845H140.806C140.806 38.5845 141.263 38.5845 141.263 39.0411L140.806 38.8128Z" fill="white"/>
<path d="M139.209 33.105V31.2785C139.209 31.2785 139.209 31.2785 138.981 31.2785C138.752 31.2785 138.524 31.2785 138.296 31.2785H122.321V37.8996C122.321 37.8996 122.321 39.4977 122.321 40.6393C122.321 41.5525 122.321 42.4658 122.093 43.379C122.093 44.2922 121.637 45.2055 121.408 46.1187C121.18 47.032 120.495 47.9452 120.039 48.6301C120.039 48.6301 120.495 48.6301 120.724 48.8585C120.952 48.8585 121.18 48.8585 121.408 49.0868C121.408 49.0868 121.865 49.3151 122.093 49.5434C122.093 49.5434 122.549 49.7717 122.549 50C123.006 49.3151 123.462 48.8585 123.69 48.1735C123.919 47.4886 124.375 46.8037 124.603 45.8904C124.603 45.2055 125.06 44.2922 125.06 43.6073C125.06 42.9224 125.288 42.0091 125.288 41.3242V40.8676V39.0411C125.288 39.0411 125.288 38.5845 125.288 38.3562V37.2146H131.221V42.4658H125.973V49.5434H128.711V48.8585H136.47V49.5434H139.209V42.4658H133.96V37.2146H138.752C138.752 37.2146 139.437 37.2146 139.893 37.2146V35.3881H125.516V33.3333H139.893L139.209 33.105ZM136.014 44.7489V47.032H128.255V44.7489H136.014Z" fill="white"/>
<path d="M139.665 31.5069V37.2146C139.665 37.2146 138.981 37.2146 138.524 37.2146H136.927V31.2785H139.209H139.437L139.665 31.5069Z" fill="white"/>
<path d="M139.665 34.2466V37.2146C139.665 37.2146 138.98 37.2146 138.524 37.2146H138.068H131.678V35.1598H138.296C138.296 35.1598 139.437 34.7032 139.437 34.0183L139.665 34.2466Z" fill="white"/>
<path d="M139.665 31.5069V34.2466C139.665 34.2466 139.209 33.105 138.524 33.105H133.047H131.678V31.0502H138.296C138.296 31.0502 138.752 31.0502 138.98 31.0502H139.209L139.665 31.5069Z" fill="white"/>
<path d="M195.577 31.5068V33.5616H184.394V36.0731H195.577V38.3562C195.577 38.3562 194.664 38.3562 194.207 38.3562H182.112V30.8219H194.436L195.805 31.0502L195.577 31.5068Z" fill="white"/>
<path d="M189.644 40.4109V49.5434H192.382V49.0868H196.033V49.5434H198.772V40.4109H189.644ZM196.033 47.032H192.382V42.9224H196.033V47.032Z" fill="white"/>
<path d="M178.918 49.7717H181.428V49.3151H184.851L187.59 49.5434V40.4109H178.689V49.5434L178.918 49.7717ZM181.656 42.9224H185.079V47.032H181.656V42.9224Z" fill="white"/>
<path d="M191.47 36.3014H183.254V38.8128H191.013C191.013 38.8128 191.013 38.8128 191.241 38.8128C191.698 38.8128 192.154 38.8128 192.611 38.8128V35.1598C192.611 35.1598 191.926 36.5297 191.241 36.5297L191.47 36.3014Z" fill="white"/>
<path d="M192.839 31.5068C192.839 31.5068 191.926 31.2785 191.47 31.2785H183.254V33.7899H191.47C191.47 33.7899 192.839 34.4749 192.839 35.1598V31.7352V31.5068Z" fill="white"/>
<path d="M195.577 31.7352H192.839V37.8995H195.577V31.7352Z" fill="white"/>
<path d="M195.577 34.9315V38.5845C195.577 38.5845 194.436 38.8128 193.751 38.8128H185.992V36.3014H194.208C194.208 36.3014 195.577 35.8447 195.577 34.9315Z" fill="white"/>
<path d="M195.577 31.5069V34.9315C195.577 34.9315 194.892 33.5616 194.208 33.5616H185.992V31.0502H194.208L195.577 31.2785V31.5069Z" fill="white"/>
<path d="M79.4177 42.4657C79.4177 42.4657 78.9613 43.6073 78.2767 43.6073H72.3432C72.3432 43.6073 71.2021 43.1507 71.2021 42.4657C71.2021 42.4657 71.6586 41.3242 72.3432 41.3242H78.2767C78.2767 41.3242 79.4177 41.7808 79.4177 42.4657Z" fill="white"/>
<path d="M82.1564 31.2785H62.9867C62.9867 31.2785 62.5303 31.5068 62.5303 31.7352V34.4749C62.5303 34.4749 63.4431 34.2466 63.8995 34.2466C63.8995 34.2466 63.8995 34.2466 64.1277 34.2466H81.7V31.2785H82.1564Z" fill="white"/>
<path d="M70.5173 37.2146L73.7122 34.2466H69.8326L66.6377 37.2146H70.5173Z" fill="white"/>
<path d="M63.8994 36.0731V50H66.6379V48.6301H77.8203V50H80.787V36.0731H63.8994ZM78.0485 46.347H66.8662V38.3562H78.0485V46.347Z" fill="white"/>
<path d="M78.0484 41.3242H68.6918C68.6918 41.3242 68.2354 41.3242 68.2354 41.7808V44.0639C68.2354 44.0639 68.92 44.0639 69.3764 43.8356H77.3638V41.3242H78.0484Z" fill="white"/>
<path d="M115.475 13.9269H103.151C103.151 13.9269 102.467 14.1553 102.467 14.6119V18.4932C102.467 18.4932 103.608 18.0365 104.292 18.0365C104.292 18.0365 104.521 18.0365 104.749 18.0365H115.018V13.9269H115.475Z" fill="white"/>
<path d="M136.926 25.1142V1.36986C136.926 1.36986 136.47 0.22831 135.785 0.22831H130.08C130.08 0.22831 130.536 2.05479 130.536 3.19635C130.536 3.19635 130.536 3.19635 130.536 3.42466C130.536 3.42466 130.536 3.65297 130.536 3.88128V4.3379V25.1142H136.698H136.926Z" fill="white"/>
<path d="M102.695 32.1918L99.7283 30.8219V32.1918H91.5127V36.9863H94.2512V34.7032H108.172V36.9863H111.139V32.1918H102.695Z" fill="white"/>
<path d="M91.056 38.8128V41.0959C91.056 41.0959 91.7407 41.0959 92.1971 41.0959H111.139V38.8128H91.056C91.056 38.8128 90.5996 38.8128 90.5996 39.2694L91.056 38.8128Z" fill="white"/>
<path d="M104.977 45.4338C104.977 45.4338 105.661 45.2055 106.118 44.9772C106.802 44.7489 107.031 44.2922 107.031 43.6073C107.031 42.6941 107.031 41.0959 107.031 41.0959V36.0731H104.292C104.292 37.4429 104.292 41.3242 104.292 42.4658C104.292 42.4658 104.292 42.6941 104.064 42.9224C103.151 43.379 102.238 43.6073 101.325 44.0639C101.325 44.0639 101.097 44.0639 100.869 44.0639C99.9561 43.6073 99.0432 43.379 98.1304 42.9224C98.1304 42.9224 98.1304 42.9224 98.1304 42.6941C98.1304 42.2374 98.1304 41.3242 98.1304 41.3242V36.3014H95.3918V41.3242C95.3918 41.3242 95.3918 42.9224 95.3918 43.8356C95.3918 44.5205 95.6201 44.9772 96.3047 45.2055C96.7611 45.2055 96.9893 45.4338 97.4458 45.6621C95.8483 46.347 92.6533 47.7169 92.6533 47.7169L94.0226 50.2283C94.0226 50.2283 98.815 48.4018 101.097 47.2603C101.097 47.2603 101.554 47.2603 101.782 47.2603C104.292 48.1735 109.313 50.2283 109.313 50.2283L110.454 47.7169C110.454 47.7169 107.715 46.5753 106.346 46.1187C106.118 46.1187 105.89 46.1187 105.433 45.6621L104.977 45.4338Z" fill="white"/>
<path d="M102.695 33.5616V31.2785C102.695 31.2785 102.695 30.8219 102.239 30.8219H99.5C99.5 30.8219 99.7282 31.7352 99.7282 32.1918C99.7282 32.1918 99.7282 32.1918 99.7282 32.4201V33.3333H102.695V33.5616Z" fill="white"/>
</g>
<defs>
<clipPath id="clip0_8107_249">
<rect width="199" height="50" fill="white"/>
</clipPath>
</defs>
</svg>
