<svg width="240" height="57" viewBox="0 0 240 57" fill="none" xmlns="http://www.w3.org/2000/svg">
<g clip-path="url(#clip0_7749_6087)">
<path d="M46.0321 -0.5H9.97362C4.46534 -0.5 0 3.96489 0 9.4726V45.5274C0 51.0351 4.46534 55.5 9.97362 55.5H46.0321C51.5404 55.5 56.0057 51.0351 56.0057 45.5274V9.4726C56.0057 3.96489 51.5404 -0.5 46.0321 -0.5Z" fill="#FF641F"/>
<path d="M48.8456 35.8104C47.8227 30.952 43.2195 27.6278 38.3605 27.6278H36.8261V26.3493C42.1966 26.3493 46.544 22.0022 46.544 16.3767C46.544 10.7511 42.1966 6.40405 36.5704 6.40405H8.43968C8.43968 6.40405 6.90527 7.17118 6.90527 7.9383V15.8652C6.90527 15.8652 9.46261 15.0981 10.997 15.0981C10.997 15.0981 11.2527 15.0981 11.5085 15.0981H11.7642C11.7642 15.0981 12.2757 15.0981 12.5314 15.0981H36.8261V23.5365H11.2528C8.95114 23.5365 6.90527 25.5821 6.90527 27.8835C6.90527 30.1849 8.95114 32.2305 11.2528 32.2305H36.8261V40.1575H35.8032H11.2528C9.71835 40.1575 8.43968 39.9018 7.16101 39.3904V47.3173C7.16101 47.3173 7.92821 48.8515 8.69541 48.8515H38.872C45.5211 48.8515 50.6358 42.9703 49.1014 36.0662L48.8456 35.8104Z" fill="white"/>
<path d="M132.47 27.6279H139.63L125.565 2.8242C124.286 0.778539 122.24 -0.5 120.195 -0.5C117.893 -0.5 115.847 0.778539 114.824 2.56849L100.759 27.3721H107.919L119.427 5.89269H121.217L132.726 27.3721L132.47 27.6279Z" fill="#FF641F"/>
<path d="M196.403 27.6279H203.564L189.499 2.8242C188.22 0.778539 186.174 -0.5 184.128 -0.5C181.827 -0.5 179.781 0.778539 178.758 2.56849L164.692 27.3721H171.853L183.361 5.89269H185.151L196.659 27.3721L196.403 27.6279Z" fill="#FF641F"/>
<path d="M97.4344 19.1894C96.6672 15.8652 93.8542 13.8195 90.5296 13.8195H89.5067V13.0524C93.087 13.0524 95.9 9.98393 95.9 6.40402C95.9 2.82411 93.087 -0.244385 89.5067 -0.244385H70.5824C70.5824 -0.244385 69.5594 0.267031 69.5594 0.778446V5.8926C69.5594 5.8926 71.0938 5.38119 72.1168 5.38119C72.1168 5.38119 72.1168 5.38119 72.3725 5.38119C72.3725 5.38119 72.6282 5.38119 72.884 5.38119H88.9952V11.0068H72.1168C70.5824 11.0068 69.3037 12.2853 69.3037 13.8195C69.3037 15.3538 70.5824 16.6323 72.1168 16.6323H88.9952V22.0022H88.4838H72.1168C71.0938 22.0022 70.0709 22.0022 69.3037 21.4908V26.8606C69.3037 26.8606 69.8152 27.8835 70.3266 27.8835H90.2739C94.6214 27.8835 97.9459 24.0479 97.1787 19.4451L97.4344 19.1894Z" fill="#FF641F"/>
<path d="M216.862 1.29004V19.1896C216.862 19.1896 216.862 20.9795 216.862 21.2352C216.862 21.7467 216.606 22.0024 216.095 22.2581C216.095 22.2581 215.583 22.5138 215.072 22.7695C214.561 22.7695 214.049 22.7695 213.793 22.7695C213.538 22.7695 213.026 22.7695 212.77 22.7695C212.259 22.7695 212.003 22.5138 211.747 22.2581C211.492 22.2581 211.236 21.7467 210.98 21.2352C210.98 20.7238 210.725 19.9567 210.725 19.1896V17.911H204.587V19.1896C204.587 21.491 205.098 23.2809 206.377 24.8152C207.656 26.0937 209.19 27.1165 210.98 27.3722C212.003 27.3722 212.77 27.6279 213.793 27.6279C214.816 27.6279 215.839 27.6279 216.862 27.3722C217.885 27.3722 218.652 26.8608 219.164 26.3494C219.931 25.838 220.698 25.3266 221.21 24.8152C221.721 24.3037 222.233 23.5366 222.488 22.5138C222.744 21.491 223 20.4681 223 19.1896V1.29004H216.862Z" fill="#FF641F"/>
<path d="M223 -0.5H209.958C209.958 -0.5 208.935 0.0114155 208.935 0.522831V5.63699C208.935 5.63699 210.469 5.12557 211.492 5.12557C211.492 5.12557 211.492 5.12557 211.748 5.12557C211.748 5.12557 212.003 5.12557 212.259 5.12557H222.488V-0.5L223 -0.5Z" fill="#FF641F"/>
<path d="M175.177 34.5319C174.41 36.3218 173.643 37.8561 172.62 39.646V55.2442H169.807V43.7373C169.807 43.7373 168.784 44.7602 168.273 45.2716C168.273 45.2716 168.273 45.0159 168.017 44.7602C167.761 44.5045 167.761 44.2488 167.505 43.993C167.505 43.7373 167.25 43.4816 166.994 43.2259C166.994 43.2259 166.738 42.7145 166.482 42.7145C166.994 42.2031 167.505 41.6917 168.273 40.9246C168.784 40.1574 169.295 39.646 169.807 38.8789C170.318 38.1118 170.83 37.3446 171.086 36.5775C171.597 35.8104 171.853 35.0433 172.109 34.2762L174.922 35.0433L175.177 34.5319ZM181.826 41.436C181.826 42.9702 181.571 44.2488 181.315 45.5273C181.059 46.8058 180.548 48.0844 180.036 49.1072C179.525 50.3857 178.758 51.4086 177.99 52.4314C177.223 53.4542 176.2 54.2214 174.922 54.9885C174.922 54.7328 174.41 54.2214 173.899 53.7099C173.387 53.1985 173.131 52.9428 172.62 52.6871C173.643 51.92 174.666 51.4086 175.433 50.3857C176.2 49.6186 176.712 48.5958 177.223 47.573C177.735 46.5501 177.99 45.5273 178.246 44.5045C178.246 43.4816 178.758 42.2031 178.758 40.9246H173.643V38.3675H178.758C178.758 38.3675 178.758 36.8332 178.758 36.0661V33.509H181.826C181.826 35.299 181.826 36.8332 181.826 38.3675H187.197C187.197 38.3675 186.941 37.8561 186.685 37.6004C186.43 37.3446 186.174 37.0889 185.918 36.8332C185.662 36.5775 185.407 36.3218 185.151 36.0661C184.895 35.8104 184.64 35.5547 184.128 35.299L186.174 34.0204C186.174 34.0204 186.685 34.5319 187.197 34.7876C187.708 35.0433 187.708 35.299 188.22 35.5547C188.731 35.8104 188.731 36.0661 188.987 36.3218C189.243 36.5775 189.498 36.8332 189.754 37.0889L187.708 38.6232L191.033 41.1803H182.082L181.826 41.436Z" fill="#FF641F"/>
<path d="M190.777 39.3902V41.6916C190.777 41.6916 190.01 41.6916 189.498 41.6916H174.154V39.1345H190.777C190.777 39.1345 191.288 39.1345 191.288 39.6459L190.777 39.3902Z" fill="#FF641F"/>
<path d="M184.896 42.7146V51.4087C184.896 51.4087 184.896 52.1758 184.896 52.4315C184.896 52.4315 184.896 52.6872 185.151 52.9429C185.151 52.9429 185.407 52.9429 185.663 52.9429C185.663 52.9429 186.174 52.9429 186.43 52.9429C186.43 52.9429 186.686 52.9429 186.941 52.9429H187.453C187.453 52.9429 187.453 52.9429 187.709 52.4315C187.709 52.4315 187.709 51.9201 187.709 51.4087V50.8972H190.777V51.4087C190.777 51.4087 190.522 53.4543 189.755 53.9657C189.243 54.4772 188.476 54.9886 187.453 55.2443C186.941 55.2443 186.43 55.2443 185.919 55.2443C185.407 55.2443 184.896 55.2443 184.384 55.2443C183.873 55.2443 183.617 54.9886 183.105 54.7329C182.594 54.7329 182.338 54.2214 182.083 53.9657C181.827 53.71 181.571 53.4543 181.315 52.9429C181.315 52.4315 181.06 51.9201 181.06 51.4087V42.7146H184.128H184.896Z" fill="#FF641F"/>
<path d="M152.161 39.1346H144.745V41.436H151.906C152.417 41.436 152.673 41.436 153.184 41.436V38.1118C153.184 38.1118 152.673 39.3904 151.906 39.3904L152.161 39.1346Z" fill="#FF641F"/>
<path d="M153.44 34.7877C153.44 34.7877 152.673 34.532 152.161 34.532H144.745V36.8334H149.348H152.417C153.184 36.8334 153.696 37.3448 153.696 38.1119V35.0434L153.44 34.7877Z" fill="#FF641F"/>
<path d="M157.787 42.9706V45.5276C157.787 45.5276 157.02 45.5276 156.508 45.5276H139.63V42.7148H157.787C157.787 42.7148 158.298 42.7148 158.298 43.2263L157.787 42.9706Z" fill="#FF641F"/>
<path d="M155.997 36.5776V34.532C155.997 34.532 155.997 34.532 155.742 34.532C155.486 34.532 155.23 34.532 154.974 34.532H137.073V41.9475C137.073 41.9475 137.073 43.7375 137.073 45.016C137.073 46.0388 137.073 47.0617 136.817 48.0845C136.817 49.1073 136.306 50.1302 136.05 51.153C135.794 52.1758 135.027 53.1987 134.516 53.9658C134.516 53.9658 135.027 53.9658 135.283 54.2215C135.539 54.2215 135.794 54.2215 136.05 54.4772C136.05 54.4772 136.561 54.7329 136.817 54.9886C136.817 54.9886 137.329 55.2443 137.329 55.5C137.84 54.7329 138.352 54.2215 138.607 53.4544C138.863 52.6872 139.375 51.9201 139.63 50.8973C139.63 50.1302 140.142 49.1073 140.142 48.3402C140.142 47.5731 140.397 46.5502 140.397 45.7831V45.2717V43.226C140.397 43.226 140.397 42.7146 140.397 42.4589V41.1804H147.047V47.0617H141.165V54.9886H144.234V54.2215H152.928V54.9886H155.997V47.0617H150.115V41.1804H155.486C155.486 41.1804 156.253 41.1804 156.764 41.1804V39.1347H140.653V36.8334H156.764L155.997 36.5776ZM152.417 49.6187V52.1758H143.722V49.6187H152.417Z" fill="#FF641F"/>
<path d="M156.508 34.7877V41.1804C156.508 41.1804 155.741 41.1804 155.23 41.1804H153.439V34.532H155.997H156.253L156.508 34.7877Z" fill="#FF641F"/>
<path d="M156.508 37.8563V41.1805C156.508 41.1805 155.741 41.1805 155.23 41.1805H154.718H147.558V38.8791H154.974C154.974 38.8791 156.253 38.3677 156.253 37.6006L156.508 37.8563Z" fill="#FF641F"/>
<path d="M156.508 34.7878V37.8563C156.508 37.8563 155.997 36.5777 155.23 36.5777H149.092H147.558V34.2764H154.974C154.974 34.2764 155.485 34.2764 155.741 34.2764H155.997L156.508 34.7878Z" fill="#FF641F"/>
<path d="M219.163 34.7876V37.089H206.633V39.9018H219.163V42.4589C219.163 42.4589 218.141 42.4589 217.629 42.4589H204.075V34.0205H217.885L219.419 34.2762L219.163 34.7876Z" fill="#FF641F"/>
<path d="M212.515 44.7603V54.9886H215.583V54.4772H219.675V54.9886H222.744V44.7603H212.515ZM219.675 52.1758H215.583V47.573H219.675V52.1758Z" fill="#FF641F"/>
<path d="M200.495 55.2443H203.308V54.7329H207.144L210.213 54.9886V44.7603H200.239V54.9886L200.495 55.2443ZM203.564 47.573H207.4V52.1758H203.564V47.573Z" fill="#FF641F"/>
<path d="M214.56 40.1574H205.354V42.9702H214.048C214.048 42.9702 214.048 42.9702 214.304 42.9702C214.816 42.9702 215.327 42.9702 215.839 42.9702V38.8789C215.839 38.8789 215.071 40.4132 214.304 40.4132L214.56 40.1574Z" fill="#FF641F"/>
<path d="M216.094 34.7877C216.094 34.7877 215.071 34.532 214.56 34.532H205.354V37.3448H214.56C214.56 37.3448 216.094 38.1119 216.094 38.879V35.0434V34.7877Z" fill="#FF641F"/>
<path d="M219.164 35.0435H216.095V41.9476H219.164V35.0435Z" fill="#FF641F"/>
<path d="M219.164 38.623V42.7144C219.164 42.7144 217.885 42.9701 217.118 42.9701H208.423V40.1573H217.629C217.629 40.1573 219.164 39.6459 219.164 38.623Z" fill="#FF641F"/>
<path d="M219.164 34.7875V38.6232C219.164 38.6232 218.396 37.0889 217.629 37.0889H208.423V34.2761H217.629L219.164 34.5318V34.7875Z" fill="#FF641F"/>
<path d="M88.9955 47.0617C88.9955 47.0617 88.484 48.3403 87.7168 48.3403H81.0677C81.0677 48.3403 79.7891 47.8289 79.7891 47.0617C79.7891 47.0617 80.3005 45.7832 81.0677 45.7832H87.7168C87.7168 45.7832 88.9955 46.2946 88.9955 47.0617Z" fill="#FF641F"/>
<path d="M92.0644 34.532H70.5828C70.5828 34.532 70.0713 34.7877 70.0713 35.0434V38.1119C70.0713 38.1119 71.0942 37.8562 71.6057 37.8562C71.6057 37.8562 71.6057 37.8562 71.8614 37.8562H91.5529V34.532H92.0644Z" fill="#FF641F"/>
<path d="M79.0223 41.1804L82.6026 37.8562H78.2551L74.6748 41.1804H79.0223Z" fill="#FF641F"/>
<path d="M71.6055 39.9019V55.5H74.6743V53.9658H87.2052V55.5H90.5298V39.9019H71.6055ZM87.461 51.4087H74.93V42.4589H87.461V51.4087Z" fill="#FF641F"/>
<path d="M87.4614 45.7832H76.9763C76.9763 45.7832 76.4648 45.7832 76.4648 46.2946V48.8517C76.4648 48.8517 77.232 48.8517 77.7435 48.596H86.6942V45.7832H87.4614Z" fill="#FF641F"/>
<path d="M129.401 15.0981H115.591C115.591 15.0981 114.824 15.3539 114.824 15.8653V20.2123C114.824 20.2123 116.103 19.7009 116.87 19.7009C116.87 19.7009 117.126 19.7009 117.382 19.7009H128.89V15.0981H129.401Z" fill="#FF641F"/>
<path d="M153.441 27.6278V1.03415C153.441 1.03415 152.929 -0.244385 152.162 -0.244385H145.769C145.769 -0.244385 146.28 1.80128 146.28 3.07982C146.28 3.07982 146.28 3.07982 146.28 3.33552C146.28 3.33552 146.28 3.59123 146.28 3.84694V4.35835V27.6278H153.185H153.441Z" fill="#FF641F"/>
<path d="M115.08 35.5548L111.755 34.0205V35.5548H102.549V40.9246H105.618V38.3675H121.217V40.9246H124.542V35.5548H115.08Z" fill="#FF641F"/>
<path d="M102.038 42.9702V45.5273C102.038 45.5273 102.805 45.5273 103.317 45.5273H124.542V42.9702H102.038C102.038 42.9702 101.526 42.9702 101.526 43.4816L102.038 42.9702Z" fill="#FF641F"/>
<path d="M117.638 50.3859C117.638 50.3859 118.405 50.1302 118.916 49.8745C119.684 49.6187 119.939 49.1073 119.939 48.3402C119.939 47.3174 119.939 45.5274 119.939 45.5274V39.9019H116.871C116.871 41.4361 116.871 45.7831 116.871 47.0617C116.871 47.0617 116.871 47.3174 116.615 47.5731C115.592 48.0845 114.569 48.3402 113.546 48.8516C113.546 48.8516 113.29 48.8516 113.035 48.8516C112.012 48.3402 110.989 48.0845 109.966 47.5731C109.966 47.5731 109.966 47.5731 109.966 47.3174C109.966 46.806 109.966 45.7831 109.966 45.7831V40.1576H106.897V45.7831C106.897 45.7831 106.897 47.5731 106.897 48.5959C106.897 49.363 107.153 49.8745 107.92 50.1302C108.431 50.1302 108.687 50.3859 109.199 50.6416C107.408 51.4087 103.828 52.9429 103.828 52.9429L105.363 55.7557C105.363 55.7557 110.733 53.7101 113.29 52.4315C113.29 52.4315 113.802 52.4315 114.057 52.4315C116.871 53.4544 122.497 55.7557 122.497 55.7557L123.775 52.9429C123.775 52.9429 120.707 51.6644 119.172 51.153C118.916 51.153 118.661 51.153 118.149 50.6416L117.638 50.3859Z" fill="#FF641F"/>
<path d="M115.08 37.089V34.5319C115.08 34.5319 115.08 34.0205 114.569 34.0205H111.5C111.5 34.0205 111.756 35.0433 111.756 35.5548C111.756 35.5548 111.756 35.5548 111.756 35.8105V36.8333H115.08V37.089Z" fill="#FF641F"/>
</g>
<defs>
<clipPath id="clip0_7749_6087">
<rect width="240" height="57" fill="white"/>
</clipPath>
</defs>
</svg>
