<svg width="159" height="40" viewBox="0 0 159 40" fill="none" xmlns="http://www.w3.org/2000/svg">
<g clip-path="url(#clip0_8107_194)">
<path d="M32.8211 0H7.11124C3.18381 0 0 3.1892 0 7.12329V32.8767C0 36.8108 3.18381 40 7.11124 40H32.8211C36.7485 40 39.9323 36.8108 39.9323 32.8767V7.12329C39.9323 3.1892 36.7485 0 32.8211 0Z" fill="#FF641F"/>
<path d="M34.8265 25.9361C34.0972 22.4658 30.8151 20.0913 27.3506 20.0913H26.2566V19.1781C30.0857 19.1781 33.1855 16.0731 33.1855 12.0548C33.1855 8.03653 30.0857 4.93151 26.0742 4.93151H6.01689C6.01689 4.93151 4.92285 5.47945 4.92285 6.0274V11.6895C4.92285 11.6895 6.74625 11.1416 7.84028 11.1416C7.84028 11.1416 8.02262 11.1416 8.20496 11.1416H8.3873C8.3873 11.1416 8.75198 11.1416 8.93432 11.1416H26.2566V17.1689H8.02262C6.38157 17.1689 4.92285 18.6301 4.92285 20.274C4.92285 21.9178 6.38157 23.379 8.02262 23.379H26.2566V29.0411H25.5272H8.02262C6.92859 29.0411 6.01689 28.8584 5.10519 28.4931V34.1553C5.10519 34.1553 5.65221 35.2511 6.19923 35.2511H27.7153C32.4561 35.2511 36.1029 31.0502 35.0089 26.1187L34.8265 25.9361Z" fill="white"/>
<path d="M94.4519 20.0913H99.5574L89.5287 2.37443C88.617 0.913242 87.1583 0 85.6996 0C84.0585 0 82.5998 0.913242 81.8705 2.19178L71.8418 19.9087H76.9473L85.1526 4.56621H86.4289L94.6342 19.9087L94.4519 20.0913Z" fill="#FF641F"/>
<path d="M140.037 20.0913H145.142L135.114 2.37443C134.202 0.913242 132.743 0 131.285 0C129.643 0 128.185 0.913242 127.455 2.19178L117.427 19.9087H122.532L130.738 4.56621H132.014L140.219 19.9087L140.037 20.0913Z" fill="#FF641F"/>
<path d="M69.4714 14.0639C68.9244 11.6895 66.9186 10.2283 64.5482 10.2283H63.8189V9.68036C66.3716 9.68036 68.3774 7.48858 68.3774 4.93151C68.3774 2.37443 66.3716 0.182649 63.8189 0.182649H50.3258C50.3258 0.182649 49.5964 0.547945 49.5964 0.913242V4.56621C49.5964 4.56621 50.6904 4.20091 51.4198 4.20091C51.4198 4.20091 51.4198 4.20091 51.6021 4.20091C51.6021 4.20091 51.7845 4.20091 51.9668 4.20091H63.4542V8.21918H51.4198C50.3258 8.21918 49.4141 9.13242 49.4141 10.2283C49.4141 11.3242 50.3258 12.2374 51.4198 12.2374H63.4542V16.0731H63.0895H51.4198C50.6904 16.0731 49.9611 16.0731 49.4141 15.7078V19.5434C49.4141 19.5434 49.7787 20.274 50.1434 20.274H64.3659C67.4657 20.274 69.8361 17.5342 69.2891 14.2466L69.4714 14.0639Z" fill="#FF641F"/>
<path d="M154.623 1.27854V14.0639C154.623 14.0639 154.623 15.3425 154.623 15.5251C154.623 15.8904 154.441 16.0731 154.076 16.2557C154.076 16.2557 153.712 16.4384 153.347 16.621C152.982 16.621 152.618 16.621 152.435 16.621C152.253 16.621 151.888 16.621 151.706 16.621C151.341 16.621 151.159 16.4384 150.977 16.2557C150.794 16.2557 150.612 15.8904 150.43 15.5251C150.43 15.1598 150.247 14.6119 150.247 14.0639V13.1507H145.871V14.0639C145.871 15.7078 146.236 16.9863 147.147 18.0822C148.059 18.9954 149.153 19.726 150.43 19.9087C151.159 19.9087 151.706 20.0913 152.435 20.0913C153.165 20.0913 153.894 20.0913 154.623 19.9087C155.353 19.9087 155.9 19.5434 156.264 19.1781C156.811 18.8128 157.358 18.4475 157.723 18.0822C158.088 17.7169 158.453 17.1689 158.635 16.4384C158.817 15.7078 159 14.9772 159 14.0639V1.27854H154.623Z" fill="#FF641F"/>
<path d="M158.999 0H149.7C149.7 0 148.971 0.365297 148.971 0.730594V4.38356C148.971 4.38356 150.065 4.01827 150.794 4.01827C150.794 4.01827 150.794 4.01827 150.976 4.01827C150.976 4.01827 151.159 4.01827 151.341 4.01827H158.635V0L158.999 0Z" fill="#FF641F"/>
<path d="M124.903 25.0228C124.356 26.3014 123.809 27.3973 123.079 28.6758V39.8174H121.074V31.5982C121.074 31.5982 120.344 32.3288 119.979 32.6941C119.979 32.6941 119.98 32.5114 119.797 32.3288C119.615 32.1461 119.615 31.9635 119.432 31.7808C119.432 31.5982 119.25 31.4155 119.068 31.2329C119.068 31.2329 118.885 30.8676 118.703 30.8676C119.068 30.5023 119.432 30.137 119.979 29.589C120.344 29.0411 120.709 28.6758 121.074 28.1279C121.438 27.5799 121.803 27.032 121.985 26.484C122.35 25.9361 122.532 25.3881 122.715 24.8402L124.72 25.3881L124.903 25.0228ZM129.643 29.9543C129.643 31.0502 129.461 31.9635 129.279 32.8767C129.096 33.79 128.732 34.7032 128.367 35.4338C128.002 36.347 127.455 37.0776 126.908 37.8082C126.361 38.5388 125.632 39.0868 124.72 39.6347C124.72 39.4521 124.356 39.0868 123.991 38.7215C123.626 38.3562 123.444 38.1735 123.079 37.9909C123.809 37.4429 124.538 37.0776 125.085 36.347C125.632 35.7991 125.997 35.0685 126.361 34.3379C126.726 33.6073 126.908 32.8767 127.091 32.1461C127.091 31.4155 127.455 30.5023 127.455 29.589H123.809V27.7626H127.455C127.455 27.7626 127.455 26.6667 127.455 26.1187V24.2922H129.643C129.643 25.5708 129.643 26.6667 129.643 27.7626H133.473C133.473 27.7626 133.29 27.3973 133.108 27.2146C132.926 27.032 132.743 26.8493 132.561 26.6667C132.379 26.484 132.196 26.3014 132.014 26.1187C131.832 25.9361 131.649 25.7534 131.285 25.5708L132.743 24.6575C132.743 24.6575 133.108 25.0228 133.473 25.2055C133.837 25.3881 133.837 25.5708 134.202 25.7534C134.567 25.9361 134.567 26.1187 134.749 26.3014C134.931 26.484 135.114 26.6667 135.296 26.8493L133.837 27.9452L136.208 29.7717H129.826L129.643 29.9543Z" fill="#FF641F"/>
<path d="M136.025 28.4931V30.137C136.025 30.137 135.478 30.137 135.113 30.137H124.173V28.3105H136.025C136.025 28.3105 136.39 28.3105 136.39 28.6758L136.025 28.4931Z" fill="#FF641F"/>
<path d="M131.832 30.8676V37.0776C131.832 37.0776 131.832 37.6256 131.832 37.8082C131.832 37.8082 131.832 37.9909 132.014 38.1735C132.014 38.1735 132.196 38.1735 132.379 38.1735C132.379 38.1735 132.743 38.1735 132.926 38.1735C132.926 38.1735 133.108 38.1735 133.29 38.1735H133.655C133.655 38.1735 133.655 38.1735 133.838 37.8082C133.838 37.8082 133.838 37.4429 133.838 37.0776V36.7123H136.026V37.0776C136.026 37.0776 135.843 38.5388 135.296 38.9041C134.932 39.2694 134.385 39.6347 133.655 39.8174C133.29 39.8174 132.926 39.8174 132.561 39.8174C132.196 39.8174 131.832 39.8174 131.467 39.8174C131.102 39.8174 130.92 39.6347 130.555 39.4521C130.191 39.4521 130.008 39.0868 129.826 38.9041C129.644 38.7215 129.461 38.5388 129.279 38.1735C129.279 37.8082 129.097 37.4429 129.097 37.0776V30.8676H131.285H131.832Z" fill="#FF641F"/>
<path d="M108.492 28.3105H103.204V29.9543H108.31C108.674 29.9543 108.857 29.9543 109.221 29.9543V27.5799C109.221 27.5799 108.857 28.4931 108.31 28.4931L108.492 28.3105Z" fill="#FF641F"/>
<path d="M109.404 25.2055C109.404 25.2055 108.857 25.0228 108.492 25.0228H103.204V26.6667H106.486H108.674C109.221 26.6667 109.586 27.032 109.586 27.5799V25.3881L109.404 25.2055Z" fill="#FF641F"/>
<path d="M112.503 31.0502V32.8767C112.503 32.8767 111.956 32.8767 111.591 32.8767H99.5566V30.8676H112.503C112.503 30.8676 112.867 30.8676 112.867 31.2329L112.503 31.0502Z" fill="#FF641F"/>
<path d="M111.227 26.484V25.0228C111.227 25.0228 111.227 25.0228 111.044 25.0228C110.862 25.0228 110.68 25.0228 110.497 25.0228H97.7335V30.3196C97.7335 30.3196 97.7335 31.5982 97.7335 32.5114C97.7335 33.242 97.7335 33.9726 97.5512 34.7032C97.5512 35.4338 97.1865 36.1644 97.0042 36.895C96.8219 37.6256 96.2748 38.3562 95.9102 38.9041C95.9102 38.9041 96.2748 38.9041 96.4572 39.0868C96.6395 39.0868 96.8219 39.0868 97.0042 39.2694C97.0042 39.2694 97.3689 39.4521 97.5512 39.6347C97.5512 39.6347 97.9159 39.8174 97.9159 40C98.2806 39.4521 98.6452 39.0868 98.8276 38.5388C99.0099 37.9909 99.3746 37.4429 99.5569 36.7123C99.5569 36.1644 99.9216 35.4338 99.9216 34.8858C99.9216 34.3379 100.104 33.6073 100.104 33.0594V32.6941V31.2329C100.104 31.2329 100.104 30.8676 100.104 30.6849V29.7717H104.845V33.9726H100.651V39.6347H102.839V39.0868H109.039V39.6347H111.227V33.9726H107.033V29.7717H110.862C110.862 29.7717 111.409 29.7717 111.774 29.7717V28.3105H100.286V26.6667H111.774L111.227 26.484ZM108.674 35.7991V37.6256H102.474V35.7991H108.674Z" fill="#FF641F"/>
<path d="M111.591 25.2055V29.7717C111.591 29.7717 111.044 29.7717 110.68 29.7717H109.403V25.0228H111.227H111.409L111.591 25.2055Z" fill="#FF641F"/>
<path d="M111.591 27.3973V29.7717C111.591 29.7717 111.044 29.7717 110.679 29.7717H110.314H105.209V28.1279H110.497C110.497 28.1279 111.409 27.7626 111.409 27.2146L111.591 27.3973Z" fill="#FF641F"/>
<path d="M111.591 25.2055V27.3973C111.591 27.3973 111.226 26.484 110.679 26.484H106.303H105.209V24.8402H110.497C110.497 24.8402 110.862 24.8402 111.044 24.8402H111.226L111.591 25.2055Z" fill="#FF641F"/>
<path d="M156.265 25.2055V26.8493H147.33V28.8584H156.265V30.6849C156.265 30.6849 155.536 30.6849 155.171 30.6849H145.507V24.6575H155.353L156.447 24.8402L156.265 25.2055Z" fill="#FF641F"/>
<path d="M151.523 32.3288V39.6347H153.712V39.2694H156.629V39.6347H158.817V32.3288H151.523ZM156.629 37.6256H153.712V34.3379H156.629V37.6256Z" fill="#FF641F"/>
<path d="M142.954 39.8174H144.96V39.4521H147.695L149.883 39.6347V32.3288H142.771V39.6347L142.954 39.8174ZM145.142 34.3379H147.877V37.6256H145.142V34.3379Z" fill="#FF641F"/>
<path d="M152.982 29.0411H146.418V31.0502H152.618C152.618 31.0502 152.618 31.0502 152.8 31.0502C153.165 31.0502 153.529 31.0502 153.894 31.0502V28.1279C153.894 28.1279 153.347 29.2237 152.8 29.2237L152.982 29.0411Z" fill="#FF641F"/>
<path d="M154.076 25.2055C154.076 25.2055 153.347 25.0228 152.982 25.0228H146.418V27.032H152.982C152.982 27.032 154.076 27.5799 154.076 28.1279V25.3881V25.2055Z" fill="#FF641F"/>
<path d="M156.264 25.3881H154.076V30.3196H156.264V25.3881Z" fill="#FF641F"/>
<path d="M156.265 27.9452V30.8676C156.265 30.8676 155.353 31.0502 154.806 31.0502H148.606V29.0411H155.171C155.171 29.0411 156.265 28.6758 156.265 27.9452Z" fill="#FF641F"/>
<path d="M156.265 25.2055V27.9452C156.265 27.9452 155.718 26.8493 155.171 26.8493H148.606V24.8402H155.171L156.265 25.0228V25.2055Z" fill="#FF641F"/>
<path d="M63.4539 33.9726C63.4539 33.9726 63.0892 34.8858 62.5422 34.8858H57.8013C57.8013 34.8858 56.8896 34.5205 56.8896 33.9726C56.8896 33.9726 57.2543 33.0594 57.8013 33.0594H62.5422C62.5422 33.0594 63.4539 33.4247 63.4539 33.9726Z" fill="#FF641F"/>
<path d="M65.6421 25.0228H50.3256C50.3256 25.0228 49.9609 25.2055 49.9609 25.3881V27.5799C49.9609 27.5799 50.6903 27.3973 51.055 27.3973C51.055 27.3973 51.055 27.3973 51.2373 27.3973H65.2774V25.0228H65.6421Z" fill="#FF641F"/>
<path d="M56.3429 29.7717L58.8957 27.3973H55.7959L53.2432 29.7717H56.3429Z" fill="#FF641F"/>
<path d="M51.0547 28.8584V40H53.2428V38.9041H62.1774V40H64.5478V28.8584H51.0547ZM62.3597 37.0776H53.4251V30.6849H62.3597V37.0776Z" fill="#FF641F"/>
<path d="M62.3601 33.0594H54.8842C54.8842 33.0594 54.5195 33.0594 54.5195 33.4247V35.2511C54.5195 35.2511 55.0665 35.2511 55.4312 35.0685H61.8131V33.0594H62.3601Z" fill="#FF641F"/>
<path d="M92.2635 11.1416H82.4171C82.4171 11.1416 81.8701 11.3242 81.8701 11.6895V14.7945C81.8701 14.7945 82.7818 14.4292 83.3288 14.4292C83.3288 14.4292 83.5112 14.4292 83.6935 14.4292H91.8988V11.1416H92.2635Z" fill="#FF641F"/>
<path d="M109.404 20.0913V1.09589C109.404 1.09589 109.039 0.182649 108.492 0.182649H103.934C103.934 0.182649 104.298 1.64384 104.298 2.55708C104.298 2.55708 104.298 2.55708 104.298 2.73973C104.298 2.73973 104.298 2.92237 104.298 3.10502V3.47032V20.0913H109.221H109.404Z" fill="#FF641F"/>
<path d="M82.0528 25.7534L79.6824 24.6575V25.7534H73.1182V29.589H75.3062V27.7626H86.4289V29.589H88.7993V25.7534H82.0528Z" fill="#FF641F"/>
<path d="M72.7534 31.0502V32.8767C72.7534 32.8767 73.3004 32.8767 73.665 32.8767H88.7992V31.0502H72.7534C72.7534 31.0502 72.3887 31.0502 72.3887 31.4155L72.7534 31.0502Z" fill="#FF641F"/>
<path d="M83.8756 36.347C83.8756 36.347 84.4226 36.1644 84.7873 35.9817C85.3343 35.7991 85.5167 35.4338 85.5167 34.8858C85.5167 34.1553 85.5167 32.8767 85.5167 32.8767V28.8584H83.3286C83.3286 29.9543 83.3286 33.0594 83.3286 33.9726C83.3286 33.9726 83.3286 34.1553 83.1463 34.3379C82.4169 34.7032 81.6876 34.8858 80.9582 35.2511C80.9582 35.2511 80.7759 35.2511 80.5935 35.2511C79.8642 34.8858 79.1348 34.7032 78.4054 34.3379C78.4054 34.3379 78.4054 34.3379 78.4054 34.1553C78.4054 33.79 78.4054 33.0594 78.4054 33.0594V29.0411H76.2174V33.0594C76.2174 33.0594 76.2174 34.3379 76.2174 35.0685C76.2174 35.6164 76.3997 35.9817 76.9467 36.1644C77.3114 36.1644 77.4937 36.347 77.8584 36.5297C76.582 37.0776 74.0293 38.1735 74.0293 38.1735L75.1233 40.1826C75.1233 40.1826 78.9525 38.7215 80.7759 37.8082C80.7759 37.8082 81.1405 37.8082 81.3229 37.8082C83.3286 38.5388 87.3401 40.1826 87.3401 40.1826L88.2518 38.1735C88.2518 38.1735 86.0637 37.2603 84.9697 36.895C84.7873 36.895 84.605 36.895 84.2403 36.5297L83.8756 36.347Z" fill="#FF641F"/>
<path d="M82.0527 26.8493V25.0228C82.0527 25.0228 82.0528 24.6575 81.6881 24.6575H79.5C79.5 24.6575 79.6823 25.3881 79.6823 25.7534C79.6823 25.7534 79.6823 25.7534 79.6823 25.9361V26.6667H82.0527V26.8493Z" fill="#FF641F"/>
</g>
<defs>
<clipPath id="clip0_8107_194">
<rect width="159" height="40" fill="white"/>
</clipPath>
</defs>
</svg>
